<svg xmlns="http://www.w3.org/2000/svg" xmlns:xlink="http://www.w3.org/1999/xlink" width="1920" zoomAndPan="magnify" viewBox="0 0 1440 809.999993" height="1080" preserveAspectRatio="xMidYMid meet" version="1.0"><defs><clipPath id="89552ff0a1"><path d="M 239.554688 202 L 519 202 L 519 705.867188 L 239.554688 705.867188 Z M 239.554688 202 " clip-rule="nonzero"/></clipPath><clipPath id="9e01c25818"><path d="M 956 274 L 1235.554688 274 L 1235.554688 555 L 956 555 Z M 956 274 " clip-rule="nonzero"/></clipPath><clipPath id="0c604ff5c4"><path d="M 373 123.117188 L 1102 123.117188 L 1102 254 L 373 254 Z M 373 123.117188 " clip-rule="nonzero"/></clipPath><clipPath id="bc6f2ee64c"><path d="M 373 242 L 1102 242 L 1102 705.867188 L 373 705.867188 Z M 373 242 " clip-rule="nonzero"/></clipPath><clipPath id="065adb35f3"><path d="M 331 694 L 1144 694 L 1144 705.867188 L 331 705.867188 Z M 331 694 " clip-rule="nonzero"/></clipPath></defs><path fill="#ffffff" d="M 490.097656 208.816406 L 268.464844 208.816406 C 267.71875 208.816406 266.972656 208.855469 266.226562 208.929688 C 265.484375 209.003906 264.746094 209.113281 264.011719 209.261719 C 263.277344 209.410156 262.554688 209.589844 261.839844 209.808594 C 261.125 210.027344 260.421875 210.28125 259.730469 210.566406 C 259.039062 210.855469 258.363281 211.175781 257.707031 211.527344 C 257.046875 211.878906 256.40625 212.265625 255.785156 212.679688 C 255.164062 213.097656 254.5625 213.542969 253.988281 214.015625 C 253.410156 214.492188 252.855469 214.996094 252.328125 215.523438 C 251.796875 216.050781 251.296875 216.605469 250.824219 217.183594 C 250.347656 217.761719 249.902344 218.363281 249.488281 218.984375 C 249.074219 219.605469 248.691406 220.246094 248.335938 220.90625 C 247.984375 221.566406 247.664062 222.242188 247.378906 222.933594 C 247.09375 223.625 246.839844 224.328125 246.625 225.042969 C 246.40625 225.757812 246.222656 226.484375 246.078125 227.214844 C 245.933594 227.949219 245.820312 228.6875 245.75 229.433594 C 245.675781 230.175781 245.636719 230.921875 245.636719 231.671875 L 245.636719 677.195312 C 245.636719 677.945312 245.675781 678.691406 245.75 679.433594 C 245.824219 680.179688 245.933594 680.917969 246.078125 681.648438 C 246.226562 682.382812 246.40625 683.105469 246.625 683.824219 C 246.84375 684.539062 247.09375 685.242188 247.378906 685.929688 C 247.667969 686.621094 247.988281 687.296875 248.339844 687.957031 C 248.691406 688.613281 249.074219 689.253906 249.492188 689.875 C 249.90625 690.496094 250.351562 691.097656 250.824219 691.675781 C 251.300781 692.253906 251.800781 692.804688 252.328125 693.335938 C 252.859375 693.863281 253.410156 694.363281 253.988281 694.839844 C 254.566406 695.3125 255.167969 695.757812 255.789062 696.175781 C 256.410156 696.589844 257.050781 696.972656 257.707031 697.328125 C 258.367188 697.679688 259.042969 698 259.734375 698.285156 C 260.421875 698.570312 261.125 698.824219 261.839844 699.039062 C 262.554688 699.257812 263.28125 699.441406 264.011719 699.585938 C 264.746094 699.734375 265.484375 699.84375 266.226562 699.917969 C 266.972656 699.992188 267.71875 700.027344 268.464844 700.03125 L 490.097656 700.03125 C 490.847656 700.03125 491.59375 699.992188 492.335938 699.917969 C 493.082031 699.847656 493.820312 699.738281 494.554688 699.589844 C 495.289062 699.445312 496.011719 699.265625 496.730469 699.046875 C 497.445312 698.828125 498.148438 698.578125 498.839844 698.292969 C 499.53125 698.007812 500.207031 697.6875 500.867188 697.335938 C 501.527344 696.980469 502.167969 696.597656 502.792969 696.183594 C 503.414062 695.769531 504.015625 695.324219 504.59375 694.847656 C 505.171875 694.375 505.726562 693.875 506.253906 693.34375 C 506.785156 692.816406 507.285156 692.261719 507.761719 691.683594 C 508.238281 691.105469 508.683594 690.507812 509.101562 689.886719 C 509.515625 689.261719 509.902344 688.625 510.253906 687.964844 C 510.609375 687.304688 510.929688 686.628906 511.214844 685.9375 C 511.503906 685.246094 511.753906 684.542969 511.972656 683.828125 C 512.191406 683.113281 512.375 682.386719 512.523438 681.652344 C 512.667969 680.921875 512.78125 680.179688 512.855469 679.4375 C 512.929688 678.691406 512.96875 677.945312 512.96875 677.195312 L 512.96875 231.671875 C 512.96875 230.921875 512.929688 230.175781 512.855469 229.429688 C 512.78125 228.6875 512.667969 227.945312 512.523438 227.214844 C 512.375 226.480469 512.191406 225.753906 511.972656 225.039062 C 511.753906 224.324219 511.503906 223.617188 511.214844 222.925781 C 510.929688 222.234375 510.609375 221.5625 510.253906 220.902344 C 509.902344 220.242188 509.515625 219.601562 509.101562 218.976562 C 508.683594 218.355469 508.238281 217.757812 507.761719 217.175781 C 507.289062 216.597656 506.785156 216.046875 506.253906 215.515625 C 505.726562 214.988281 505.171875 214.484375 504.59375 214.011719 C 504.015625 213.535156 503.414062 213.089844 502.792969 212.675781 C 502.171875 212.257812 501.527344 211.875 500.867188 211.523438 C 500.207031 211.167969 499.53125 210.847656 498.84375 210.5625 C 498.152344 210.277344 497.445312 210.023438 496.730469 209.804688 C 496.015625 209.585938 495.289062 209.40625 494.554688 209.257812 C 493.820312 209.113281 493.082031 209.003906 492.335938 208.929688 C 491.59375 208.855469 490.847656 208.816406 490.097656 208.816406 Z M 490.097656 208.816406 " fill-opacity="1" fill-rule="nonzero"/><path fill="#fffbdd" d="M 269.582031 260.808594 L 489.007812 260.808594 L 489.007812 629.308594 L 269.582031 629.308594 Z M 269.582031 260.808594 " fill-opacity="1" fill-rule="nonzero"/><path fill="#afdbf5" d="M 494.949219 635.257812 L 263.652344 635.257812 L 263.652344 254.863281 L 494.957031 254.863281 Z M 275.519531 623.375 L 483.066406 623.375 L 483.066406 266.734375 L 275.519531 266.734375 Z M 275.519531 623.375 " fill-opacity="1" fill-rule="nonzero"/><g clip-path="url(#89552ff0a1)"><path fill="#afdbf5" d="M 490.097656 705.976562 L 268.464844 705.976562 C 267.523438 705.972656 266.582031 705.925781 265.644531 705.835938 C 264.707031 705.742188 263.777344 705.601562 262.855469 705.417969 C 261.929688 705.234375 261.015625 705.003906 260.117188 704.730469 C 259.214844 704.457031 258.328125 704.136719 257.457031 703.777344 C 256.589844 703.417969 255.738281 703.011719 254.90625 702.570312 C 254.078125 702.125 253.269531 701.640625 252.484375 701.117188 C 251.703125 700.59375 250.949219 700.03125 250.21875 699.433594 C 249.492188 698.835938 248.792969 698.203125 248.128906 697.539062 C 247.460938 696.871094 246.828125 696.175781 246.230469 695.445312 C 245.632812 694.71875 245.074219 693.960938 244.550781 693.179688 C 244.027344 692.394531 243.542969 691.589844 243.097656 690.757812 C 242.652344 689.925781 242.25 689.078125 241.890625 688.207031 C 241.527344 687.335938 241.210938 686.449219 240.9375 685.546875 C 240.664062 684.648438 240.433594 683.734375 240.25 682.808594 C 240.066406 681.886719 239.925781 680.953125 239.832031 680.015625 C 239.738281 679.078125 239.691406 678.140625 239.691406 677.195312 L 239.691406 231.671875 C 239.691406 230.730469 239.738281 229.789062 239.832031 228.851562 C 239.925781 227.914062 240.066406 226.984375 240.25 226.058594 C 240.433594 225.132812 240.664062 224.222656 240.9375 223.320312 C 241.210938 222.417969 241.53125 221.53125 241.890625 220.660156 C 242.25 219.792969 242.65625 218.941406 243.097656 218.109375 C 243.542969 217.277344 244.027344 216.472656 244.550781 215.6875 C 245.074219 214.90625 245.636719 214.148438 246.234375 213.421875 C 246.832031 212.691406 247.460938 211.996094 248.128906 211.328125 C 248.792969 210.660156 249.492188 210.03125 250.21875 209.429688 C 250.949219 208.832031 251.703125 208.273438 252.488281 207.75 C 253.269531 207.226562 254.078125 206.742188 254.90625 206.296875 C 255.738281 205.851562 256.589844 205.449219 257.457031 205.085938 C 258.328125 204.726562 259.214844 204.40625 260.117188 204.132812 C 261.015625 203.859375 261.929688 203.628906 262.855469 203.445312 C 263.777344 203.257812 264.707031 203.121094 265.644531 203.027344 C 266.582031 202.933594 267.523438 202.886719 268.464844 202.882812 L 490.097656 202.882812 C 491.039062 202.882812 491.980469 202.933594 492.917969 203.023438 C 493.855469 203.117188 494.789062 203.257812 495.710938 203.441406 C 496.636719 203.625 497.550781 203.855469 498.453125 204.128906 C 499.355469 204.402344 500.242188 204.722656 501.109375 205.082031 C 501.980469 205.441406 502.832031 205.847656 503.664062 206.289062 C 504.496094 206.734375 505.304688 207.21875 506.085938 207.742188 C 506.871094 208.265625 507.625 208.828125 508.355469 209.425781 C 509.085938 210.023438 509.78125 210.65625 510.449219 211.320312 C 511.117188 211.988281 511.746094 212.6875 512.347656 213.414062 C 512.945312 214.144531 513.507812 214.898438 514.03125 215.683594 C 514.554688 216.464844 515.039062 217.273438 515.484375 218.105469 C 515.929688 218.9375 516.332031 219.785156 516.695312 220.65625 C 517.054688 221.527344 517.375 222.414062 517.648438 223.316406 C 517.921875 224.21875 518.152344 225.132812 518.335938 226.054688 C 518.523438 226.980469 518.660156 227.910156 518.753906 228.851562 C 518.847656 229.789062 518.894531 230.726562 518.898438 231.671875 L 518.898438 677.195312 C 518.898438 678.140625 518.847656 679.082031 518.753906 680.019531 C 518.660156 680.957031 518.523438 681.886719 518.335938 682.8125 C 518.152344 683.738281 517.921875 684.648438 517.648438 685.550781 C 517.375 686.453125 517.054688 687.339844 516.695312 688.210938 C 516.332031 689.082031 515.929688 689.933594 515.484375 690.761719 C 515.039062 691.59375 514.554688 692.402344 514.03125 693.183594 C 513.507812 693.96875 512.945312 694.722656 512.347656 695.453125 C 511.75 696.179688 511.117188 696.878906 510.449219 697.542969 C 509.78125 698.210938 509.085938 698.84375 508.355469 699.441406 C 507.628906 700.039062 506.871094 700.597656 506.085938 701.121094 C 505.304688 701.644531 504.496094 702.128906 503.664062 702.574219 C 502.832031 703.019531 501.980469 703.421875 501.109375 703.78125 C 500.242188 704.144531 499.355469 704.460938 498.453125 704.734375 C 497.550781 705.007812 496.636719 705.234375 495.710938 705.421875 C 494.789062 705.605469 493.855469 705.742188 492.917969 705.835938 C 491.980469 705.929688 491.039062 705.976562 490.097656 705.976562 Z M 268.464844 214.753906 C 267.910156 214.753906 267.359375 214.78125 266.808594 214.835938 C 266.257812 214.890625 265.710938 214.972656 265.167969 215.082031 C 264.625 215.191406 264.089844 215.324219 263.558594 215.488281 C 263.03125 215.648438 262.507812 215.835938 262 216.046875 C 261.488281 216.261719 260.988281 216.496094 260.5 216.757812 C 260.011719 217.019531 259.539062 217.304688 259.078125 217.613281 C 258.617188 217.921875 258.171875 218.25 257.746094 218.601562 C 257.316406 218.953125 256.910156 219.324219 256.515625 219.714844 C 256.125 220.109375 255.753906 220.519531 255.402344 220.945312 C 255.050781 221.375 254.722656 221.820312 254.414062 222.277344 C 254.109375 222.738281 253.824219 223.214844 253.5625 223.703125 C 253.300781 224.191406 253.066406 224.691406 252.855469 225.203125 C 252.640625 225.714844 252.457031 226.234375 252.292969 226.765625 C 252.132812 227.292969 252 227.832031 251.890625 228.375 C 251.78125 228.917969 251.703125 229.464844 251.648438 230.015625 C 251.59375 230.566406 251.566406 231.117188 251.5625 231.671875 L 251.5625 677.195312 C 251.566406 677.75 251.59375 678.304688 251.648438 678.855469 C 251.699219 679.40625 251.78125 679.953125 251.890625 680.496094 C 252 681.039062 252.132812 681.574219 252.292969 682.101562 C 252.453125 682.632812 252.640625 683.152344 252.851562 683.664062 C 253.066406 684.175781 253.300781 684.675781 253.5625 685.164062 C 253.824219 685.652344 254.109375 686.125 254.414062 686.585938 C 254.722656 687.046875 255.050781 687.492188 255.402344 687.917969 C 255.753906 688.347656 256.125 688.757812 256.515625 689.148438 C 256.910156 689.539062 257.316406 689.910156 257.746094 690.261719 C 258.171875 690.613281 258.617188 690.941406 259.078125 691.25 C 259.539062 691.558594 260.011719 691.84375 260.5 692.101562 C 260.988281 692.363281 261.488281 692.601562 262 692.8125 C 262.511719 693.023438 263.03125 693.210938 263.558594 693.371094 C 264.089844 693.53125 264.625 693.667969 265.167969 693.777344 C 265.710938 693.882812 266.257812 693.964844 266.808594 694.019531 C 267.359375 694.074219 267.910156 694.101562 268.464844 694.101562 L 490.097656 694.101562 C 490.652344 694.101562 491.203125 694.074219 491.757812 694.023438 C 492.308594 693.96875 492.855469 693.886719 493.398438 693.777344 C 493.941406 693.671875 494.476562 693.535156 495.007812 693.375 C 495.539062 693.214844 496.058594 693.027344 496.570312 692.816406 C 497.082031 692.605469 497.585938 692.371094 498.074219 692.109375 C 498.5625 691.847656 499.035156 691.5625 499.496094 691.257812 C 499.957031 690.949219 500.402344 690.621094 500.832031 690.269531 C 501.261719 689.917969 501.671875 689.546875 502.0625 689.15625 C 502.453125 688.761719 502.828125 688.351562 503.179688 687.925781 C 503.53125 687.496094 503.859375 687.054688 504.167969 686.59375 C 504.476562 686.132812 504.761719 685.65625 505.023438 685.167969 C 505.285156 684.679688 505.523438 684.179688 505.734375 683.667969 C 505.949219 683.15625 506.136719 682.636719 506.296875 682.105469 C 506.457031 681.578125 506.59375 681.039062 506.703125 680.496094 C 506.8125 679.953125 506.894531 679.40625 506.949219 678.855469 C 507.003906 678.304688 507.03125 677.75 507.03125 677.195312 L 507.03125 231.671875 C 507.03125 231.117188 507.003906 230.5625 506.949219 230.011719 C 506.894531 229.460938 506.8125 228.914062 506.703125 228.371094 C 506.59375 227.828125 506.457031 227.289062 506.296875 226.761719 C 506.132812 226.230469 505.949219 225.710938 505.734375 225.199219 C 505.523438 224.683594 505.285156 224.183594 505.023438 223.695312 C 504.761719 223.207031 504.476562 222.734375 504.167969 222.273438 C 503.859375 221.8125 503.53125 221.367188 503.179688 220.941406 C 502.828125 220.511719 502.453125 220.101562 502.0625 219.710938 C 501.671875 219.320312 501.261719 218.949219 500.832031 218.597656 C 500.402344 218.246094 499.957031 217.914062 499.496094 217.605469 C 499.035156 217.300781 498.5625 217.015625 498.074219 216.753906 C 497.585938 216.492188 497.085938 216.253906 496.574219 216.042969 C 496.058594 215.832031 495.539062 215.644531 495.007812 215.484375 C 494.480469 215.324219 493.941406 215.1875 493.398438 215.078125 C 492.855469 214.972656 492.308594 214.890625 491.757812 214.835938 C 491.203125 214.78125 490.652344 214.753906 490.097656 214.753906 Z M 268.464844 214.753906 " fill-opacity="1" fill-rule="nonzero"/></g><path fill="#afdbf5" d="M 379.28125 686.34375 C 378.578125 686.34375 377.871094 686.308594 377.171875 686.238281 C 376.46875 686.167969 375.773438 686.0625 375.078125 685.925781 C 374.386719 685.785156 373.703125 685.613281 373.03125 685.410156 C 372.355469 685.203125 371.691406 684.964844 371.039062 684.695312 C 370.390625 684.421875 369.753906 684.121094 369.132812 683.789062 C 368.507812 683.453125 367.90625 683.089844 367.320312 682.699219 C 366.734375 682.304688 366.167969 681.886719 365.621094 681.4375 C 365.078125 680.988281 364.554688 680.515625 364.058594 680.015625 C 363.558594 679.515625 363.085938 678.992188 362.640625 678.449219 C 362.195312 677.902344 361.773438 677.335938 361.382812 676.75 C 360.992188 676.160156 360.628906 675.554688 360.296875 674.933594 C 359.964844 674.3125 359.667969 673.675781 359.398438 673.023438 C 359.128906 672.371094 358.890625 671.707031 358.6875 671.03125 C 358.484375 670.355469 358.3125 669.671875 358.175781 668.980469 C 358.039062 668.285156 357.9375 667.589844 357.867188 666.886719 C 357.800781 666.183594 357.765625 665.480469 357.765625 664.777344 C 357.765625 664.070312 357.800781 663.367188 357.871094 662.664062 C 357.941406 661.960938 358.046875 661.265625 358.183594 660.574219 C 358.324219 659.882812 358.496094 659.199219 358.699219 658.523438 C 358.90625 657.847656 359.144531 657.183594 359.414062 656.53125 C 359.683594 655.882812 359.988281 655.246094 360.320312 654.621094 C 360.652344 654 361.015625 653.398438 361.410156 652.8125 C 361.800781 652.222656 362.222656 651.660156 362.667969 651.113281 C 363.117188 650.570312 363.589844 650.046875 364.089844 649.546875 C 364.589844 649.050781 365.113281 648.578125 365.65625 648.128906 C 366.203125 647.683594 366.769531 647.265625 367.355469 646.871094 C 367.945312 646.480469 368.546875 646.121094 369.171875 645.789062 C 369.792969 645.457031 370.429688 645.15625 371.082031 644.886719 C 371.734375 644.617188 372.398438 644.378906 373.074219 644.175781 C 373.75 643.972656 374.433594 643.800781 375.125 643.664062 C 375.816406 643.527344 376.515625 643.421875 377.214844 643.355469 C 377.917969 643.285156 378.621094 643.253906 379.328125 643.253906 C 380.03125 643.253906 380.738281 643.289062 381.4375 643.359375 C 382.140625 643.429688 382.835938 643.53125 383.527344 643.671875 C 384.222656 643.808594 384.902344 643.980469 385.578125 644.1875 C 386.253906 644.390625 386.917969 644.628906 387.570312 644.898438 C 388.21875 645.171875 388.855469 645.472656 389.480469 645.804688 C 390.101562 646.140625 390.703125 646.5 391.289062 646.894531 C 391.878906 647.285156 392.441406 647.707031 392.988281 648.15625 C 393.53125 648.601562 394.054688 649.078125 394.550781 649.574219 C 395.050781 650.074219 395.523438 650.597656 395.972656 651.144531 C 396.417969 651.6875 396.835938 652.253906 397.230469 652.84375 C 397.621094 653.429688 397.980469 654.035156 398.3125 654.65625 C 398.644531 655.277344 398.945312 655.917969 399.214844 656.570312 C 399.484375 657.21875 399.722656 657.882812 399.925781 658.558594 C 400.132812 659.234375 400.300781 659.917969 400.4375 660.609375 C 400.578125 661.304688 400.679688 662 400.746094 662.703125 C 400.816406 663.40625 400.851562 664.109375 400.851562 664.8125 C 400.847656 665.519531 400.8125 666.222656 400.742188 666.925781 C 400.671875 667.628906 400.566406 668.324219 400.429688 669.015625 C 400.289062 669.707031 400.117188 670.390625 399.910156 671.066406 C 399.703125 671.742188 399.464844 672.402344 399.195312 673.054688 C 398.925781 673.707031 398.621094 674.34375 398.289062 674.964844 C 397.957031 675.585938 397.59375 676.191406 397.199219 676.777344 C 396.808594 677.363281 396.386719 677.929688 395.9375 678.472656 C 395.488281 679.019531 395.015625 679.542969 394.515625 680.039062 C 394.019531 680.539062 393.496094 681.011719 392.949219 681.457031 C 392.402344 681.90625 391.835938 682.324219 391.25 682.714844 C 390.664062 683.109375 390.058594 683.46875 389.4375 683.800781 C 388.8125 684.132812 388.175781 684.433594 387.523438 684.703125 C 386.875 684.972656 386.210938 685.210938 385.535156 685.417969 C 384.859375 685.621094 384.175781 685.792969 383.484375 685.929688 C 382.792969 686.066406 382.09375 686.171875 381.394531 686.238281 C 380.691406 686.308594 379.988281 686.34375 379.28125 686.34375 Z M 379.28125 655.125 C 378.648438 655.128906 378.019531 655.191406 377.398438 655.316406 C 376.777344 655.441406 376.171875 655.628906 375.585938 655.871094 C 375.003906 656.117188 374.445312 656.417969 373.921875 656.769531 C 373.394531 657.125 372.90625 657.527344 372.460938 657.976562 C 372.011719 658.425781 371.613281 658.914062 371.261719 659.441406 C 370.910156 659.96875 370.613281 660.527344 370.375 661.113281 C 370.132812 661.699219 369.949219 662.304688 369.828125 662.929688 C 369.703125 663.550781 369.644531 664.179688 369.644531 664.8125 C 369.644531 665.445312 369.707031 666.074219 369.832031 666.695312 C 369.957031 667.320312 370.140625 667.921875 370.386719 668.507812 C 370.628906 669.09375 370.925781 669.652344 371.28125 670.179688 C 371.632812 670.703125 372.035156 671.191406 372.484375 671.640625 C 372.929688 672.089844 373.417969 672.488281 373.945312 672.839844 C 374.472656 673.191406 375.03125 673.492188 375.617188 673.734375 C 376.203125 673.976562 376.808594 674.160156 377.429688 674.28125 C 378.050781 674.40625 378.679688 674.46875 379.3125 674.46875 C 379.949219 674.46875 380.574219 674.40625 381.199219 674.28125 C 381.820312 674.160156 382.425781 673.976562 383.011719 673.734375 C 383.597656 673.492188 384.152344 673.195312 384.679688 672.839844 C 385.207031 672.488281 385.695312 672.089844 386.144531 671.640625 C 386.59375 671.191406 386.996094 670.707031 387.347656 670.179688 C 387.699219 669.652344 388 669.09375 388.242188 668.511719 C 388.484375 667.925781 388.671875 667.320312 388.796875 666.699219 C 388.917969 666.078125 388.984375 665.449219 388.984375 664.8125 C 388.984375 664.175781 388.917969 663.546875 388.792969 662.921875 C 388.667969 662.300781 388.484375 661.691406 388.242188 661.105469 C 387.996094 660.519531 387.695312 659.960938 387.34375 659.429688 C 386.988281 658.902344 386.585938 658.414062 386.136719 657.964844 C 385.6875 657.511719 385.195312 657.113281 384.667969 656.757812 C 384.136719 656.40625 383.578125 656.105469 382.992188 655.863281 C 382.402344 655.621094 381.796875 655.4375 381.171875 655.3125 C 380.546875 655.1875 379.917969 655.125 379.28125 655.125 Z M 379.28125 655.125 " fill-opacity="1" fill-rule="nonzero"/><path fill="#afdbf5" d="M 293.523438 228.675781 L 465.035156 228.675781 L 465.035156 240.546875 L 293.523438 240.546875 Z M 293.523438 228.675781 " fill-opacity="1" fill-rule="nonzero"/><path fill="#afdbf5" d="M 348.148438 472.378906 L 317.753906 451.136719 L 317.753906 438.988281 L 348.148438 417.746094 L 348.148438 429.882812 L 326.875 445.027344 L 348.148438 460.277344 Z M 348.148438 472.378906 " fill-opacity="1" fill-rule="nonzero"/><path fill="#afdbf5" d="M 360.035156 487.589844 L 387.292969 402.546875 L 399.511719 402.546875 L 372.210938 487.589844 Z M 360.035156 487.589844 " fill-opacity="1" fill-rule="nonzero"/><path fill="#afdbf5" d="M 411.421875 472.378906 L 411.421875 460.269531 L 432.6875 445.023438 L 411.421875 429.878906 L 411.421875 417.742188 L 441.773438 438.984375 L 441.773438 451.136719 Z M 411.421875 472.378906 " fill-opacity="1" fill-rule="nonzero"/><path fill="#f1f1f2" d="M 1229.488281 444.890625 L 1229.488281 384.269531 L 1196.816406 384.269531 C 1194.800781 377.417969 1192.109375 370.84375 1188.742188 364.546875 L 1211.792969 341.488281 L 1168.894531 298.609375 L 1145.820312 321.671875 C 1139.53125 318.277344 1132.960938 315.574219 1126.101562 313.558594 L 1126.101562 280.902344 L 1065.519531 280.902344 L 1065.519531 313.554688 C 1058.664062 315.574219 1052.085938 318.28125 1045.792969 321.667969 L 1022.707031 298.613281 L 979.878906 341.492188 L 1002.921875 364.546875 C 999.527344 370.839844 996.816406 377.414062 994.792969 384.269531 L 962.136719 384.269531 L 962.136719 444.890625 L 994.792969 444.890625 C 996.820312 451.75 999.53125 458.328125 1002.921875 464.625 L 979.878906 487.683594 L 1022.738281 530.539062 L 1045.84375 507.484375 C 1052.121094 510.875 1058.679688 513.582031 1065.519531 515.609375 L 1065.519531 548.257812 L 1126.097656 548.257812 L 1126.097656 515.605469 C 1132.949219 513.574219 1139.519531 510.867188 1145.816406 507.484375 L 1168.886719 530.539062 L 1211.785156 487.683594 L 1188.742188 464.621094 C 1192.105469 458.320312 1194.796875 451.742188 1196.8125 444.890625 Z M 1095.796875 458.429688 C 1094.363281 458.429688 1092.929688 458.359375 1091.5 458.214844 C 1090.070312 458.074219 1088.652344 457.863281 1087.246094 457.585938 C 1085.835938 457.304688 1084.445312 456.957031 1083.074219 456.539062 C 1081.699219 456.121094 1080.347656 455.636719 1079.023438 455.085938 C 1077.695312 454.539062 1076.398438 453.925781 1075.132812 453.246094 C 1073.867188 452.570312 1072.636719 451.832031 1071.445312 451.035156 C 1070.25 450.238281 1069.097656 449.382812 1067.988281 448.46875 C 1066.878906 447.558594 1065.816406 446.597656 1064.804688 445.582031 C 1063.789062 444.566406 1062.824219 443.503906 1061.914062 442.390625 C 1061.003906 441.28125 1060.148438 440.128906 1059.351562 438.933594 C 1058.554688 437.742188 1057.816406 436.511719 1057.140625 435.246094 C 1056.464844 433.976562 1055.851562 432.679688 1055.304688 431.355469 C 1054.753906 430.027344 1054.269531 428.675781 1053.855469 427.304688 C 1053.4375 425.929688 1053.089844 424.539062 1052.808594 423.128906 C 1052.53125 421.71875 1052.320312 420.300781 1052.179688 418.871094 C 1052.039062 417.445312 1051.96875 416.011719 1051.96875 414.574219 C 1051.96875 413.140625 1052.042969 411.707031 1052.183594 410.277344 C 1052.324219 408.847656 1052.535156 407.429688 1052.8125 406.023438 C 1053.09375 404.613281 1053.441406 403.222656 1053.859375 401.847656 C 1054.277344 400.472656 1054.761719 399.125 1055.308594 397.796875 C 1055.859375 396.472656 1056.472656 395.175781 1057.152344 393.910156 C 1057.828125 392.640625 1058.566406 391.414062 1059.363281 390.21875 C 1060.160156 389.023438 1061.015625 387.871094 1061.925781 386.761719 C 1062.835938 385.652344 1063.800781 384.589844 1064.816406 383.574219 C 1065.832031 382.5625 1066.894531 381.597656 1068.003906 380.6875 C 1069.113281 379.777344 1070.265625 378.921875 1071.460938 378.125 C 1072.652344 377.328125 1073.882812 376.589844 1075.152344 375.914062 C 1076.417969 375.238281 1077.714844 374.625 1079.039062 374.074219 C 1080.367188 373.523438 1081.714844 373.042969 1083.089844 372.625 C 1084.464844 372.210938 1085.855469 371.859375 1087.265625 371.582031 C 1088.671875 371.300781 1090.089844 371.089844 1091.519531 370.949219 C 1092.949219 370.8125 1094.378906 370.742188 1095.816406 370.742188 C 1097.25 370.742188 1098.683594 370.8125 1100.113281 370.953125 C 1101.542969 371.09375 1102.960938 371.304688 1104.367188 371.585938 C 1105.777344 371.867188 1107.167969 372.214844 1108.539062 372.632812 C 1109.914062 373.046875 1111.265625 373.53125 1112.589844 374.082031 C 1113.917969 374.632812 1115.214844 375.246094 1116.480469 375.921875 C 1117.746094 376.597656 1118.976562 377.335938 1120.167969 378.136719 C 1121.363281 378.933594 1122.515625 379.789062 1123.625 380.699219 C 1124.734375 381.609375 1125.796875 382.574219 1126.8125 383.589844 C 1127.824219 384.605469 1128.789062 385.667969 1129.699219 386.777344 C 1130.609375 387.886719 1131.464844 389.039062 1132.261719 390.234375 C 1133.058594 391.429688 1133.796875 392.660156 1134.472656 393.925781 C 1135.148438 395.191406 1135.761719 396.488281 1136.308594 397.816406 C 1136.859375 399.140625 1137.34375 400.492188 1137.757812 401.867188 C 1138.175781 403.242188 1138.523438 404.632812 1138.804688 406.039062 C 1139.082031 407.449219 1139.292969 408.867188 1139.433594 410.296875 C 1139.574219 411.726562 1139.644531 413.15625 1139.644531 414.59375 C 1139.644531 416.03125 1139.570312 417.460938 1139.429688 418.890625 C 1139.289062 420.320312 1139.078125 421.738281 1138.796875 423.144531 C 1138.515625 424.554688 1138.167969 425.945312 1137.75 427.320312 C 1137.332031 428.691406 1136.847656 430.042969 1136.296875 431.367188 C 1135.75 432.695312 1135.136719 433.992188 1134.457031 435.257812 C 1133.78125 436.523438 1133.042969 437.753906 1132.246094 438.945312 C 1131.445312 440.140625 1130.59375 441.289062 1129.679688 442.398438 C 1128.769531 443.507812 1127.808594 444.570312 1126.792969 445.585938 C 1125.777344 446.601562 1124.714844 447.5625 1123.605469 448.476562 C 1122.496094 449.386719 1121.34375 450.238281 1120.148438 451.035156 C 1118.957031 451.835938 1117.726562 452.570312 1116.460938 453.246094 C 1115.191406 453.925781 1113.898438 454.539062 1112.570312 455.085938 C 1111.246094 455.636719 1109.894531 456.117188 1108.519531 456.535156 C 1107.148438 456.953125 1105.757812 457.300781 1104.347656 457.582031 C 1102.941406 457.859375 1101.523438 458.070312 1100.09375 458.210938 C 1098.664062 458.351562 1097.234375 458.421875 1095.796875 458.421875 Z M 1095.796875 458.429688 " fill-opacity="1" fill-rule="nonzero"/><g clip-path="url(#9e01c25818)"><path fill="#afdbf5" d="M 1132.050781 554.191406 L 1059.609375 554.191406 L 1059.609375 519.945312 C 1055.289062 518.476562 1051.082031 516.742188 1046.980469 514.742188 L 1022.726562 538.929688 L 971.496094 487.683594 L 995.664062 463.488281 C 993.667969 459.371094 991.929688 455.152344 990.445312 450.828125 L 956.203125 450.828125 L 956.203125 378.324219 L 990.445312 378.324219 C 991.929688 374.003906 993.667969 369.789062 995.664062 365.679688 L 971.492188 341.488281 L 1022.691406 290.230469 L 1046.945312 314.414062 C 1051.058594 312.410156 1055.277344 310.671875 1059.609375 309.199219 L 1059.609375 274.964844 L 1132.050781 274.964844 L 1132.050781 309.199219 C 1136.371094 310.671875 1140.582031 312.414062 1144.683594 314.414062 L 1168.894531 290.230469 L 1220.191406 341.488281 L 1195.988281 365.6875 C 1197.96875 369.792969 1199.691406 374.003906 1201.15625 378.324219 L 1235.417969 378.324219 L 1235.417969 450.828125 L 1201.15625 450.828125 C 1199.695312 455.152344 1197.96875 459.367188 1195.96875 463.46875 L 1220.191406 487.683594 L 1168.894531 538.929688 L 1144.683594 514.742188 C 1140.582031 516.738281 1136.371094 518.472656 1132.050781 519.945312 Z M 1071.476562 542.320312 L 1120.175781 542.320312 L 1120.175781 511.167969 L 1124.40625 509.914062 C 1130.867188 508.007812 1137.058594 505.453125 1142.988281 502.257812 L 1146.890625 500.15625 L 1168.902344 522.140625 L 1203.410156 487.679688 L 1181.429688 465.714844 L 1183.503906 461.84375 C 1186.664062 455.894531 1189.199219 449.683594 1191.105469 443.222656 L 1192.351562 438.953125 L 1223.546875 438.953125 L 1223.546875 390.195312 L 1192.355469 390.195312 L 1191.113281 385.9375 C 1189.214844 379.476562 1186.679688 373.277344 1183.507812 367.339844 L 1181.433594 363.449219 L 1203.402344 341.488281 L 1168.894531 307.011719 L 1146.878906 329 L 1142.988281 326.898438 C 1137.070312 323.691406 1130.882812 321.140625 1124.421875 319.25 L 1120.179688 318 L 1120.179688 286.839844 L 1071.480469 286.839844 L 1071.480469 318 L 1067.214844 319.25 C 1060.757812 321.148438 1054.566406 323.695312 1048.648438 326.898438 L 1044.757812 329 L 1022.734375 307.011719 L 988.296875 341.488281 L 1010.269531 363.46875 L 1008.175781 367.359375 C 1004.972656 373.289062 1002.410156 379.484375 1000.488281 385.945312 L 999.214844 390.195312 L 968.074219 390.195312 L 968.074219 438.953125 L 999.214844 438.953125 L 1000.488281 443.214844 C 1002.40625 449.675781 1004.964844 455.875 1008.164062 461.808594 L 1010.261719 465.699219 L 988.285156 487.675781 L 1022.75 522.136719 L 1044.804688 500.15625 L 1048.695312 502.253906 C 1054.601562 505.457031 1060.78125 508.011719 1067.226562 509.910156 L 1071.476562 511.164062 Z M 1095.796875 464.363281 C 1094.167969 464.363281 1092.542969 464.285156 1090.917969 464.125 C 1089.296875 463.964844 1087.6875 463.722656 1086.085938 463.40625 C 1084.488281 463.085938 1082.910156 462.691406 1081.351562 462.21875 C 1079.789062 461.742188 1078.257812 461.195312 1076.75 460.570312 C 1075.246094 459.945312 1073.773438 459.25 1072.335938 458.480469 C 1070.898438 457.710938 1069.503906 456.875 1068.148438 455.96875 C 1066.792969 455.0625 1065.484375 454.089844 1064.226562 453.058594 C 1062.964844 452.023438 1061.761719 450.929688 1060.609375 449.773438 C 1059.457031 448.621094 1058.363281 447.414062 1057.328125 446.15625 C 1056.292969 444.894531 1055.324219 443.585938 1054.421875 442.230469 C 1053.515625 440.875 1052.679688 439.476562 1051.910156 438.039062 C 1051.140625 436.601562 1050.445312 435.128906 1049.824219 433.621094 C 1049.199219 432.117188 1048.652344 430.582031 1048.179688 429.023438 C 1047.707031 427.460938 1047.3125 425.882812 1046.992188 424.285156 C 1046.675781 422.683594 1046.4375 421.074219 1046.277344 419.453125 C 1046.117188 417.828125 1046.039062 416.203125 1046.039062 414.570312 C 1046.039062 412.941406 1046.121094 411.316406 1046.28125 409.691406 C 1046.441406 408.070312 1046.679688 406.460938 1046.996094 404.859375 C 1047.316406 403.261719 1047.710938 401.683594 1048.1875 400.121094 C 1048.660156 398.5625 1049.207031 397.03125 1049.832031 395.523438 C 1050.457031 394.015625 1051.152344 392.546875 1051.921875 391.109375 C 1052.691406 389.671875 1053.527344 388.273438 1054.433594 386.917969 C 1055.339844 385.5625 1056.308594 384.253906 1057.34375 382.996094 C 1058.378906 381.734375 1059.472656 380.527344 1060.625 379.375 C 1061.777344 378.222656 1062.984375 377.128906 1064.246094 376.097656 C 1065.503906 375.0625 1066.8125 374.09375 1068.167969 373.1875 C 1069.523438 372.28125 1070.921875 371.445312 1072.359375 370.675781 C 1073.796875 369.910156 1075.269531 369.210938 1076.773438 368.589844 C 1078.28125 367.964844 1079.8125 367.417969 1081.375 366.945312 C 1082.933594 366.472656 1084.511719 366.078125 1086.113281 365.757812 C 1087.710938 365.441406 1089.320312 365.203125 1090.945312 365.042969 C 1092.566406 364.882812 1094.191406 364.804688 1095.824219 364.804688 C 1097.453125 364.804688 1099.078125 364.886719 1100.699219 365.046875 C 1102.324219 365.207031 1103.933594 365.445312 1105.53125 365.761719 C 1107.132812 366.082031 1108.710938 366.476562 1110.269531 366.949219 C 1111.828125 367.425781 1113.363281 367.972656 1114.867188 368.597656 C 1116.375 369.222656 1117.847656 369.917969 1119.285156 370.6875 C 1120.71875 371.457031 1122.117188 372.292969 1123.472656 373.199219 C 1124.828125 374.105469 1126.132812 375.074219 1127.394531 376.109375 C 1128.65625 377.144531 1129.859375 378.238281 1131.011719 379.390625 C 1132.164062 380.542969 1133.257812 381.75 1134.292969 383.011719 C 1135.324219 384.273438 1136.296875 385.582031 1137.199219 386.9375 C 1138.105469 388.292969 1138.941406 389.6875 1139.710938 391.128906 C 1140.480469 392.566406 1141.175781 394.039062 1141.796875 395.542969 C 1142.421875 397.050781 1142.96875 398.582031 1143.441406 400.144531 C 1143.917969 401.703125 1144.3125 403.285156 1144.628906 404.882812 C 1144.945312 406.480469 1145.183594 408.09375 1145.34375 409.714844 C 1145.503906 411.335938 1145.582031 412.964844 1145.582031 414.59375 C 1145.582031 416.222656 1145.5 417.851562 1145.339844 419.472656 C 1145.179688 421.09375 1144.9375 422.703125 1144.617188 424.304688 C 1144.296875 425.902344 1143.902344 427.480469 1143.425781 429.039062 C 1142.953125 430.597656 1142.402344 432.132812 1141.777344 433.636719 C 1141.15625 435.144531 1140.457031 436.613281 1139.6875 438.050781 C 1138.917969 439.488281 1138.082031 440.886719 1137.175781 442.238281 C 1136.269531 443.59375 1135.300781 444.902344 1134.265625 446.160156 C 1133.230469 447.421875 1132.136719 448.628906 1130.984375 449.78125 C 1129.832031 450.933594 1128.625 452.023438 1127.367188 453.058594 C 1126.105469 454.09375 1124.796875 455.0625 1123.441406 455.96875 C 1122.085938 456.875 1120.691406 457.710938 1119.253906 458.480469 C 1117.816406 459.25 1116.34375 459.945312 1114.839844 460.570312 C 1113.335938 461.191406 1111.800781 461.742188 1110.242188 462.214844 C 1108.683594 462.6875 1107.105469 463.085938 1105.503906 463.402344 C 1103.90625 463.722656 1102.296875 463.960938 1100.675781 464.121094 C 1099.054688 464.285156 1097.425781 464.363281 1095.796875 464.363281 Z M 1095.796875 376.679688 C 1094.554688 376.679688 1093.320312 376.742188 1092.082031 376.863281 C 1090.847656 376.984375 1089.621094 377.167969 1088.40625 377.410156 C 1087.1875 377.652344 1085.984375 377.953125 1084.800781 378.3125 C 1083.613281 378.675781 1082.445312 379.09375 1081.296875 379.570312 C 1080.152344 380.042969 1079.03125 380.574219 1077.9375 381.160156 C 1076.84375 381.746094 1075.78125 382.382812 1074.75 383.074219 C 1073.71875 383.761719 1072.722656 384.5 1071.761719 385.289062 C 1070.804688 386.078125 1069.886719 386.910156 1069.007812 387.785156 C 1068.128906 388.664062 1067.296875 389.582031 1066.511719 390.542969 C 1065.722656 391.503906 1064.984375 392.5 1064.296875 393.53125 C 1063.609375 394.5625 1062.972656 395.625 1062.386719 396.722656 C 1061.800781 397.816406 1061.273438 398.9375 1060.796875 400.082031 C 1060.320312 401.230469 1059.90625 402.398438 1059.542969 403.585938 C 1059.183594 404.773438 1058.882812 405.976562 1058.640625 407.191406 C 1058.398438 408.410156 1058.21875 409.636719 1058.097656 410.871094 C 1057.976562 412.109375 1057.914062 413.34375 1057.914062 414.585938 C 1057.914062 415.828125 1057.976562 417.066406 1058.097656 418.300781 C 1058.21875 419.535156 1058.402344 420.761719 1058.644531 421.980469 C 1058.886719 423.199219 1059.1875 424.398438 1059.546875 425.585938 C 1059.90625 426.777344 1060.324219 427.941406 1060.800781 429.089844 C 1061.277344 430.234375 1061.804688 431.355469 1062.390625 432.449219 C 1062.976562 433.546875 1063.613281 434.609375 1064.304688 435.640625 C 1064.992188 436.671875 1065.730469 437.667969 1066.519531 438.628906 C 1067.304688 439.585938 1068.136719 440.507812 1069.015625 441.382812 C 1069.894531 442.261719 1070.8125 443.09375 1071.769531 443.882812 C 1072.730469 444.667969 1073.726562 445.40625 1074.757812 446.097656 C 1075.789062 446.785156 1076.851562 447.421875 1077.945312 448.007812 C 1079.039062 448.59375 1080.160156 449.125 1081.308594 449.597656 C 1082.453125 450.074219 1083.621094 450.492188 1084.808594 450.851562 C 1085.996094 451.210938 1087.199219 451.511719 1088.414062 451.753906 C 1089.632812 451.996094 1090.859375 452.179688 1092.09375 452.300781 C 1093.328125 452.421875 1094.566406 452.484375 1095.808594 452.484375 C 1097.050781 452.484375 1098.285156 452.425781 1099.523438 452.300781 C 1100.757812 452.179688 1101.984375 452 1103.199219 451.757812 C 1104.417969 451.515625 1105.621094 451.214844 1106.808594 450.855469 C 1107.996094 450.492188 1109.160156 450.078125 1110.308594 449.601562 C 1111.457031 449.125 1112.574219 448.597656 1113.671875 448.011719 C 1114.765625 447.425781 1115.828125 446.789062 1116.859375 446.101562 C 1117.890625 445.410156 1118.886719 444.671875 1119.847656 443.886719 C 1120.804688 443.097656 1121.726562 442.265625 1122.601562 441.386719 C 1123.480469 440.511719 1124.3125 439.59375 1125.101562 438.632812 C 1125.886719 437.675781 1126.625 436.679688 1127.316406 435.648438 C 1128.007812 434.613281 1128.644531 433.550781 1129.230469 432.457031 C 1129.8125 431.363281 1130.34375 430.242188 1130.820312 429.097656 C 1131.292969 427.949219 1131.710938 426.78125 1132.074219 425.59375 C 1132.433594 424.40625 1132.734375 423.203125 1132.976562 421.988281 C 1133.21875 420.769531 1133.402344 419.542969 1133.523438 418.308594 C 1133.648438 417.074219 1133.707031 415.835938 1133.707031 414.59375 C 1133.707031 413.351562 1133.644531 412.113281 1133.523438 410.878906 C 1133.402344 409.640625 1133.21875 408.414062 1132.976562 407.199219 C 1132.734375 405.980469 1132.429688 404.777344 1132.070312 403.589844 C 1131.710938 402.402344 1131.292969 401.234375 1130.816406 400.085938 C 1130.339844 398.941406 1129.8125 397.820312 1129.226562 396.722656 C 1128.640625 395.628906 1128 394.566406 1127.3125 393.53125 C 1126.621094 392.5 1125.882812 391.503906 1125.097656 390.542969 C 1124.308594 389.585938 1123.476562 388.664062 1122.597656 387.789062 C 1121.71875 386.910156 1120.800781 386.078125 1119.84375 385.289062 C 1118.882812 384.5 1117.886719 383.761719 1116.855469 383.070312 C 1115.824219 382.382812 1114.757812 381.746094 1113.664062 381.160156 C 1112.570312 380.574219 1111.449219 380.042969 1110.300781 379.566406 C 1109.15625 379.089844 1107.988281 378.671875 1106.800781 378.3125 C 1105.613281 377.949219 1104.410156 377.648438 1103.191406 377.40625 C 1101.976562 377.164062 1100.75 376.980469 1099.511719 376.859375 C 1098.277344 376.734375 1097.039062 376.671875 1095.796875 376.671875 Z M 1095.796875 376.679688 " fill-opacity="1" fill-rule="nonzero"/></g><path fill="#ffffff" d="M 379.308594 247.949219 L 1095.796875 247.949219 L 1095.796875 695.386719 L 379.308594 695.386719 Z M 379.308594 247.949219 " fill-opacity="1" fill-rule="nonzero"/><path fill="#478ecc" d="M 793.351562 289.753906 L 1053.996094 289.753906 L 1053.996094 658.191406 L 793.351562 658.191406 Z M 793.351562 289.753906 " fill-opacity="1" fill-rule="nonzero"/><path fill="#f1f1f2" d="M 421.113281 289.753906 L 793.347656 289.753906 L 793.347656 658.191406 L 421.113281 658.191406 Z M 421.113281 289.753906 " fill-opacity="1" fill-rule="nonzero"/><path fill="#faaf40" d="M 379.308594 129.105469 L 1095.796875 129.105469 L 1095.796875 247.949219 L 379.308594 247.949219 Z M 379.308594 129.105469 " fill-opacity="1" fill-rule="nonzero"/><g clip-path="url(#0c604ff5c4)"><path fill="#3374b9" d="M 1101.734375 253.878906 L 373.378906 253.878906 L 373.378906 123.167969 L 1101.734375 123.167969 Z M 385.242188 242.003906 L 1089.875 242.003906 L 1089.875 135.039062 L 385.242188 135.039062 Z M 385.242188 242.003906 " fill-opacity="1" fill-rule="nonzero"/></g><path fill="#3374b9" d="M 454.707031 188.515625 C 454.707031 189.066406 454.679688 189.613281 454.628906 190.164062 C 454.574219 190.710938 454.496094 191.253906 454.386719 191.796875 C 454.28125 192.335938 454.148438 192.871094 453.992188 193.394531 C 453.832031 193.921875 453.648438 194.441406 453.4375 194.949219 C 453.226562 195.460938 452.992188 195.957031 452.734375 196.441406 C 452.476562 196.929688 452.191406 197.402344 451.886719 197.859375 C 451.582031 198.316406 451.257812 198.761719 450.90625 199.1875 C 450.558594 199.613281 450.191406 200.019531 449.800781 200.410156 C 449.414062 200.800781 449.003906 201.167969 448.582031 201.519531 C 448.15625 201.871094 447.714844 202.199219 447.257812 202.503906 C 446.800781 202.8125 446.328125 203.09375 445.84375 203.355469 C 445.359375 203.613281 444.859375 203.851562 444.351562 204.0625 C 443.84375 204.273438 443.328125 204.457031 442.800781 204.617188 C 442.273438 204.78125 441.742188 204.914062 441.199219 205.023438 C 440.660156 205.128906 440.117188 205.210938 439.570312 205.265625 C 439.023438 205.320312 438.472656 205.347656 437.921875 205.347656 C 437.371094 205.347656 436.824219 205.324219 436.273438 205.269531 C 435.726562 205.214844 435.183594 205.136719 434.640625 205.027344 C 434.101562 204.921875 433.570312 204.789062 433.042969 204.628906 C 432.515625 204.46875 431.996094 204.285156 431.488281 204.074219 C 430.980469 203.867188 430.480469 203.628906 429.996094 203.371094 C 429.511719 203.113281 429.039062 202.832031 428.582031 202.523438 C 428.121094 202.21875 427.679688 201.890625 427.253906 201.542969 C 426.828125 201.195312 426.421875 200.824219 426.03125 200.4375 C 425.640625 200.046875 425.273438 199.640625 424.921875 199.214844 C 424.574219 198.789062 424.246094 198.347656 423.941406 197.890625 C 423.632812 197.433594 423.351562 196.960938 423.089844 196.476562 C 422.832031 195.992188 422.59375 195.492188 422.382812 194.984375 C 422.171875 194.476562 421.988281 193.957031 421.828125 193.433594 C 421.667969 192.90625 421.535156 192.371094 421.425781 191.832031 C 421.316406 191.292969 421.238281 190.75 421.183594 190.199219 C 421.128906 189.652344 421.101562 189.101562 421.101562 188.550781 C 421.101562 188 421.125 187.453125 421.179688 186.90625 C 421.234375 186.355469 421.316406 185.8125 421.421875 185.273438 C 421.527344 184.730469 421.664062 184.199219 421.820312 183.671875 C 421.980469 183.144531 422.167969 182.628906 422.375 182.117188 C 422.585938 181.609375 422.820312 181.113281 423.082031 180.625 C 423.339844 180.140625 423.625 179.667969 423.929688 179.210938 C 424.234375 178.753906 424.5625 178.3125 424.910156 177.886719 C 425.261719 177.460938 425.628906 177.050781 426.019531 176.664062 C 426.40625 176.273438 426.816406 175.902344 427.242188 175.554688 C 427.667969 175.207031 428.109375 174.878906 428.566406 174.570312 C 429.023438 174.265625 429.496094 173.984375 429.980469 173.722656 C 430.464844 173.464844 430.960938 173.226562 431.472656 173.019531 C 431.980469 172.808594 432.496094 172.621094 433.023438 172.460938 C 433.550781 172.300781 434.085938 172.167969 434.625 172.0625 C 435.164062 171.953125 435.707031 171.871094 436.253906 171.820312 C 436.804688 171.765625 437.351562 171.738281 437.902344 171.738281 C 438.453125 171.738281 439 171.765625 439.546875 171.816406 C 440.09375 171.871094 440.640625 171.953125 441.179688 172.058594 C 441.71875 172.167969 442.25 172.300781 442.777344 172.460938 C 443.300781 172.617188 443.820312 172.804688 444.328125 173.015625 C 444.835938 173.222656 445.332031 173.457031 445.816406 173.71875 C 446.300781 173.976562 446.773438 174.257812 447.230469 174.5625 C 447.6875 174.867188 448.128906 175.195312 448.554688 175.542969 C 448.980469 175.894531 449.386719 176.261719 449.773438 176.648438 C 450.164062 177.039062 450.53125 177.445312 450.882812 177.871094 C 451.230469 178.292969 451.558594 178.734375 451.863281 179.191406 C 452.171875 179.648438 452.453125 180.121094 452.714844 180.605469 C 452.972656 181.089844 453.207031 181.585938 453.417969 182.09375 C 453.628906 182.601562 453.816406 183.117188 453.976562 183.644531 C 454.136719 184.167969 454.269531 184.703125 454.378906 185.242188 C 454.488281 185.78125 454.566406 186.324219 454.621094 186.871094 C 454.675781 187.417969 454.707031 187.964844 454.707031 188.515625 Z M 454.707031 188.515625 " fill-opacity="1" fill-rule="nonzero"/><path fill="#3374b9" d="M 520.160156 188.515625 C 520.160156 189.066406 520.132812 189.613281 520.078125 190.160156 C 520.027344 190.707031 519.945312 191.25 519.839844 191.792969 C 519.734375 192.332031 519.597656 192.863281 519.441406 193.390625 C 519.28125 193.917969 519.097656 194.433594 518.886719 194.941406 C 518.675781 195.449219 518.441406 195.945312 518.183594 196.433594 C 517.925781 196.917969 517.640625 197.386719 517.335938 197.847656 C 517.03125 198.304688 516.703125 198.746094 516.355469 199.171875 C 516.007812 199.59375 515.640625 200.003906 515.25 200.390625 C 514.863281 200.78125 514.457031 201.148438 514.03125 201.5 C 513.605469 201.847656 513.164062 202.175781 512.707031 202.480469 C 512.25 202.789062 511.78125 203.070312 511.296875 203.328125 C 510.8125 203.589844 510.3125 203.824219 509.804688 204.035156 C 509.296875 204.246094 508.78125 204.429688 508.253906 204.589844 C 507.730469 204.75 507.195312 204.886719 506.65625 204.992188 C 506.117188 205.101562 505.574219 205.179688 505.027344 205.234375 C 504.480469 205.289062 503.933594 205.316406 503.382812 205.316406 C 502.832031 205.316406 502.285156 205.292969 501.738281 205.238281 C 501.191406 205.183594 500.648438 205.105469 500.105469 204.996094 C 499.566406 204.890625 499.035156 204.757812 498.507812 204.597656 C 497.984375 204.4375 497.464844 204.253906 496.957031 204.042969 C 496.449219 203.832031 495.953125 203.597656 495.46875 203.339844 C 494.980469 203.082031 494.511719 202.796875 494.054688 202.492188 C 493.597656 202.1875 493.15625 201.859375 492.730469 201.511719 C 492.304688 201.164062 491.898438 200.796875 491.507812 200.40625 C 491.121094 200.019531 490.75 199.609375 490.402344 199.1875 C 490.050781 198.761719 489.726562 198.320312 489.417969 197.863281 C 489.113281 197.40625 488.832031 196.933594 488.570312 196.449219 C 488.3125 195.964844 488.078125 195.46875 487.867188 194.960938 C 487.65625 194.453125 487.46875 193.9375 487.308594 193.410156 C 487.152344 192.882812 487.015625 192.351562 486.910156 191.8125 C 486.800781 191.273438 486.722656 190.730469 486.667969 190.183594 C 486.613281 189.632812 486.585938 189.085938 486.585938 188.535156 C 486.585938 187.984375 486.613281 187.4375 486.664062 186.890625 C 486.71875 186.34375 486.800781 185.800781 486.90625 185.261719 C 487.011719 184.71875 487.144531 184.1875 487.304688 183.660156 C 487.464844 183.136719 487.648438 182.617188 487.859375 182.109375 C 488.070312 181.601562 488.304688 181.105469 488.5625 180.621094 C 488.824219 180.132812 489.105469 179.664062 489.410156 179.207031 C 489.714844 178.75 490.042969 178.308594 490.390625 177.882812 C 490.738281 177.457031 491.109375 177.050781 491.496094 176.660156 C 491.886719 176.269531 492.292969 175.902344 492.71875 175.554688 C 493.140625 175.203125 493.582031 174.875 494.039062 174.570312 C 494.496094 174.265625 494.96875 173.984375 495.453125 173.722656 C 495.9375 173.464844 496.433594 173.230469 496.941406 173.019531 C 497.449219 172.808594 497.964844 172.621094 498.492188 172.460938 C 499.019531 172.300781 499.550781 172.167969 500.089844 172.0625 C 500.628906 171.953125 501.171875 171.875 501.71875 171.820312 C 502.269531 171.765625 502.816406 171.738281 503.367188 171.738281 C 503.914062 171.738281 504.464844 171.765625 505.011719 171.820312 C 505.558594 171.875 506.101562 171.953125 506.640625 172.0625 C 507.179688 172.167969 507.710938 172.300781 508.238281 172.460938 C 508.761719 172.621094 509.277344 172.804688 509.785156 173.015625 C 510.292969 173.226562 510.789062 173.460938 511.277344 173.722656 C 511.761719 173.980469 512.230469 174.261719 512.6875 174.566406 C 513.144531 174.871094 513.585938 175.199219 514.011719 175.546875 C 514.4375 175.894531 514.84375 176.265625 515.230469 176.652344 C 515.621094 177.042969 515.988281 177.449219 516.339844 177.871094 C 516.6875 178.296875 517.015625 178.738281 517.320312 179.195312 C 517.625 179.652344 517.910156 180.121094 518.167969 180.605469 C 518.425781 181.089844 518.664062 181.585938 518.875 182.09375 C 519.085938 182.601562 519.269531 183.117188 519.429688 183.644531 C 519.589844 184.171875 519.722656 184.703125 519.832031 185.242188 C 519.941406 185.78125 520.019531 186.324219 520.074219 186.871094 C 520.128906 187.417969 520.160156 187.964844 520.160156 188.515625 Z M 520.160156 188.515625 " fill-opacity="1" fill-rule="nonzero"/><path fill="#3374b9" d="M 585.613281 188.515625 C 585.613281 189.066406 585.585938 189.613281 585.535156 190.164062 C 585.480469 190.710938 585.402344 191.253906 585.296875 191.796875 C 585.1875 192.335938 585.054688 192.871094 584.898438 193.398438 C 584.738281 193.925781 584.554688 194.441406 584.34375 194.953125 C 584.132812 195.460938 583.898438 195.957031 583.640625 196.445312 C 583.382812 196.929688 583.097656 197.402344 582.792969 197.859375 C 582.488281 198.320312 582.160156 198.761719 581.8125 199.1875 C 581.464844 199.613281 581.09375 200.019531 580.707031 200.410156 C 580.316406 200.800781 579.910156 201.171875 579.484375 201.519531 C 579.058594 201.871094 578.617188 202.199219 578.160156 202.503906 C 577.703125 202.8125 577.234375 203.09375 576.746094 203.355469 C 576.261719 203.617188 575.765625 203.851562 575.257812 204.0625 C 574.75 204.273438 574.230469 204.460938 573.703125 204.621094 C 573.175781 204.78125 572.644531 204.914062 572.105469 205.023438 C 571.5625 205.128906 571.019531 205.210938 570.472656 205.265625 C 569.925781 205.320312 569.375 205.347656 568.824219 205.347656 C 568.273438 205.347656 567.726562 205.324219 567.175781 205.269531 C 566.628906 205.214844 566.085938 205.136719 565.542969 205.027344 C 565.003906 204.921875 564.472656 204.789062 563.945312 204.628906 C 563.417969 204.46875 562.898438 204.285156 562.390625 204.074219 C 561.882812 203.863281 561.382812 203.628906 560.898438 203.367188 C 560.414062 203.109375 559.941406 202.828125 559.484375 202.523438 C 559.023438 202.214844 558.582031 201.886719 558.15625 201.539062 C 557.730469 201.191406 557.324219 200.820312 556.933594 200.433594 C 556.542969 200.042969 556.175781 199.636719 555.824219 199.210938 C 555.476562 198.785156 555.148438 198.34375 554.84375 197.886719 C 554.535156 197.425781 554.253906 196.957031 553.992188 196.46875 C 553.734375 195.984375 553.5 195.488281 553.289062 194.976562 C 553.078125 194.46875 552.890625 193.953125 552.730469 193.425781 C 552.570312 192.898438 552.4375 192.363281 552.332031 191.824219 C 552.222656 191.285156 552.140625 190.738281 552.089844 190.191406 C 552.035156 189.644531 552.007812 189.09375 552.007812 188.542969 C 552.007812 187.992188 552.035156 187.445312 552.089844 186.894531 C 552.140625 186.347656 552.222656 185.804688 552.332031 185.265625 C 552.4375 184.722656 552.570312 184.191406 552.730469 183.664062 C 552.890625 183.136719 553.078125 182.617188 553.289062 182.109375 C 553.496094 181.601562 553.734375 181.105469 553.992188 180.617188 C 554.253906 180.132812 554.535156 179.660156 554.839844 179.203125 C 555.148438 178.746094 555.476562 178.304688 555.824219 177.878906 C 556.171875 177.453125 556.542969 177.046875 556.933594 176.65625 C 557.320312 176.265625 557.730469 175.898438 558.15625 175.546875 C 558.582031 175.199219 559.023438 174.871094 559.480469 174.566406 C 559.9375 174.261719 560.410156 173.976562 560.894531 173.71875 C 561.382812 173.457031 561.878906 173.222656 562.386719 173.011719 C 562.898438 172.804688 563.414062 172.617188 563.941406 172.457031 C 564.46875 172.296875 565.003906 172.164062 565.542969 172.058594 C 566.082031 171.949219 566.625 171.871094 567.175781 171.816406 C 567.722656 171.761719 568.273438 171.738281 568.824219 171.738281 C 569.371094 171.738281 569.921875 171.765625 570.464844 171.820312 C 571.011719 171.875 571.554688 171.957031 572.09375 172.0625 C 572.632812 172.171875 573.164062 172.304688 573.691406 172.464844 C 574.21875 172.625 574.734375 172.808594 575.242188 173.019531 C 575.75 173.230469 576.246094 173.464844 576.730469 173.722656 C 577.214844 173.984375 577.683594 174.265625 578.140625 174.570312 C 578.597656 174.875 579.039062 175.203125 579.464844 175.550781 C 579.886719 175.898438 580.292969 176.269531 580.683594 176.65625 C 581.070312 177.046875 581.441406 177.453125 581.789062 177.875 C 582.136719 178.300781 582.464844 178.742188 582.769531 179.199219 C 583.078125 179.65625 583.359375 180.125 583.617188 180.609375 C 583.878906 181.09375 584.113281 181.589844 584.324219 182.097656 C 584.535156 182.605469 584.722656 183.121094 584.882812 183.644531 C 585.042969 184.171875 585.175781 184.703125 585.285156 185.242188 C 585.390625 185.78125 585.472656 186.324219 585.527344 186.871094 C 585.582031 187.417969 585.613281 187.964844 585.613281 188.515625 Z M 585.613281 188.515625 " fill-opacity="1" fill-rule="nonzero"/><g clip-path="url(#bc6f2ee64c)"><path fill="#3374b9" d="M 1101.734375 705.976562 L 373.378906 705.976562 L 373.378906 242.003906 L 1101.734375 242.003906 Z M 385.242188 694.101562 L 1089.875 694.101562 L 1089.875 253.878906 L 385.242188 253.878906 Z M 385.242188 694.101562 " fill-opacity="1" fill-rule="nonzero"/></g><path fill="#f9ec31" d="M 886.914062 505.757812 L 851.636719 481.0625 L 851.636719 466.933594 L 886.914062 442.222656 L 886.914062 456.34375 L 862.210938 473.949219 L 886.914062 491.636719 Z M 886.914062 505.757812 " fill-opacity="1" fill-rule="nonzero"/><path fill="#f9ec31" d="M 900.710938 523.398438 L 932.390625 424.589844 L 946.582031 424.589844 L 914.863281 523.40625 Z M 900.710938 523.398438 " fill-opacity="1" fill-rule="nonzero"/><path fill="#f9ec31" d="M 960.429688 505.757812 L 960.429688 491.636719 L 985.152344 473.945312 L 960.429688 456.339844 L 960.429688 442.222656 L 995.722656 466.933594 L 995.722656 481.0625 Z M 960.429688 505.757812 " fill-opacity="1" fill-rule="nonzero"/><path fill="#3374b9" d="M 454.710938 316.472656 L 589.136719 316.472656 L 589.136719 328.355469 L 454.710938 328.355469 Z M 454.710938 316.472656 " fill-opacity="1" fill-rule="nonzero"/><path fill="#3374b9" d="M 602.140625 316.472656 L 759.734375 316.472656 L 759.734375 328.355469 L 602.140625 328.355469 Z M 602.140625 316.472656 " fill-opacity="1" fill-rule="nonzero"/><path fill="#faaf40" d="M 454.710938 350.070312 L 568.824219 350.070312 L 568.824219 361.945312 L 454.710938 361.945312 Z M 454.710938 350.070312 " fill-opacity="1" fill-rule="nonzero"/><path fill="#dbe477" d="M 496.058594 417.265625 L 568.824219 417.265625 L 568.824219 429.136719 L 496.058594 429.136719 Z M 496.058594 417.265625 " fill-opacity="1" fill-rule="nonzero"/><path fill="#478ecc" d="M 454.710938 450.871094 L 615.664062 450.871094 L 615.664062 462.742188 L 454.710938 462.742188 Z M 454.710938 450.871094 " fill-opacity="1" fill-rule="nonzero"/><path fill="#3374b9" d="M 454.710938 484.457031 L 534.179688 484.457031 L 534.179688 496.332031 L 454.710938 496.332031 Z M 454.710938 484.457031 " fill-opacity="1" fill-rule="nonzero"/><path fill="#faaf40" d="M 454.710938 518.0625 L 568.824219 518.0625 L 568.824219 529.9375 L 454.710938 529.9375 Z M 454.710938 518.0625 " fill-opacity="1" fill-rule="nonzero"/><path fill="#dbe477" d="M 454.710938 551.667969 L 496.058594 551.667969 L 496.058594 563.542969 L 454.710938 563.542969 Z M 454.710938 551.667969 " fill-opacity="1" fill-rule="nonzero"/><path fill="#dbe477" d="M 515.8125 551.667969 L 589.136719 551.667969 L 589.136719 563.542969 L 515.8125 563.542969 Z M 515.8125 551.667969 " fill-opacity="1" fill-rule="nonzero"/><path fill="#478ecc" d="M 454.710938 585.273438 L 528.042969 585.273438 L 528.042969 597.128906 L 454.710938 597.128906 Z M 454.710938 585.273438 " fill-opacity="1" fill-rule="nonzero"/><path fill="#3374b9" d="M 454.710938 618.863281 L 563.523438 618.863281 L 563.523438 630.726562 L 454.710938 630.726562 Z M 454.710938 618.863281 " fill-opacity="1" fill-rule="nonzero"/><path fill="#faaf40" d="M 576.316406 618.863281 L 630.738281 618.863281 L 630.738281 630.726562 L 576.316406 630.726562 Z M 576.316406 618.863281 " fill-opacity="1" fill-rule="nonzero"/><path fill="#dbe477" d="M 645.757812 618.863281 L 707.980469 618.863281 L 707.980469 630.726562 L 645.757812 630.726562 Z M 645.757812 618.863281 " fill-opacity="1" fill-rule="nonzero"/><path fill="#478ecc" d="M 716.980469 618.863281 L 760.84375 618.863281 L 760.84375 630.726562 L 716.980469 630.726562 Z M 716.980469 618.863281 " fill-opacity="1" fill-rule="nonzero"/><path fill="#478ecc" d="M 542.351562 585.273438 L 651.078125 585.273438 L 651.078125 597.128906 L 542.351562 597.128906 Z M 542.351562 585.273438 " fill-opacity="1" fill-rule="nonzero"/><path fill="#faaf40" d="M 704.296875 585.273438 L 759.734375 585.273438 L 759.734375 597.128906 L 704.296875 597.128906 Z M 704.296875 585.273438 " fill-opacity="1" fill-rule="nonzero"/><path fill="#3374b9" d="M 662.972656 585.273438 L 695.980469 585.273438 L 695.980469 597.128906 L 662.972656 597.128906 Z M 662.972656 585.273438 " fill-opacity="1" fill-rule="nonzero"/><path fill="#dbe477" d="M 607.460938 551.667969 L 759.734375 551.667969 L 759.734375 563.542969 L 607.460938 563.542969 Z M 607.460938 551.667969 " fill-opacity="1" fill-rule="nonzero"/><path fill="#3374b9" d="M 581.144531 518.0625 L 655.457031 518.0625 L 655.457031 529.9375 L 581.144531 529.9375 Z M 581.144531 518.0625 " fill-opacity="1" fill-rule="nonzero"/><path fill="#faaf40" d="M 715.945312 518.0625 L 760.84375 518.0625 L 760.84375 529.9375 L 715.945312 529.9375 Z M 715.945312 518.0625 " fill-opacity="1" fill-rule="nonzero"/><path fill="#dbe477" d="M 665.21875 518.0625 L 710.089844 518.0625 L 710.089844 529.9375 L 665.21875 529.9375 Z M 665.21875 518.0625 " fill-opacity="1" fill-rule="nonzero"/><path fill="#478ecc" d="M 549.414062 484.457031 L 628.882812 484.457031 L 628.882812 496.332031 L 549.414062 496.332031 Z M 549.414062 484.457031 " fill-opacity="1" fill-rule="nonzero"/><path fill="#3374b9" d="M 681.382812 484.457031 L 760.84375 484.457031 L 760.84375 496.332031 L 681.382812 496.332031 Z M 681.382812 484.457031 " fill-opacity="1" fill-rule="nonzero"/><path fill="#478ecc" d="M 644.089844 484.457031 L 666.777344 484.457031 L 666.777344 496.332031 L 644.089844 496.332031 Z M 644.089844 484.457031 " fill-opacity="1" fill-rule="nonzero"/><path fill="#478ecc" d="M 630.738281 450.871094 L 759.734375 450.871094 L 759.734375 462.742188 L 630.738281 462.742188 Z M 630.738281 450.871094 " fill-opacity="1" fill-rule="nonzero"/><path fill="#faaf40" d="M 585.613281 417.265625 L 759.738281 417.265625 L 759.738281 429.136719 L 585.613281 429.136719 Z M 585.613281 417.265625 " fill-opacity="1" fill-rule="nonzero"/><path fill="#3374b9" d="M 454.710938 417.265625 L 483.214844 417.265625 L 483.214844 429.136719 L 454.710938 429.136719 Z M 454.710938 417.265625 " fill-opacity="1" fill-rule="nonzero"/><path fill="#478ecc" d="M 454.710938 383.660156 L 511.757812 383.660156 L 511.757812 395.539062 L 454.710938 395.539062 Z M 454.710938 383.660156 " fill-opacity="1" fill-rule="nonzero"/><path fill="#478ecc" d="M 713.246094 383.660156 L 759.734375 383.660156 L 759.734375 395.539062 L 713.246094 395.539062 Z M 713.246094 383.660156 " fill-opacity="1" fill-rule="nonzero"/><path fill="#faaf40" d="M 658.148438 383.660156 L 704.59375 383.660156 L 704.59375 395.539062 L 658.148438 395.539062 Z M 658.148438 383.660156 " fill-opacity="1" fill-rule="nonzero"/><path fill="#dbe477" d="M 587.1875 350.070312 L 644.089844 350.070312 L 644.089844 361.945312 L 587.1875 361.945312 Z M 587.1875 350.070312 " fill-opacity="1" fill-rule="nonzero"/><path fill="#3374b9" d="M 534.179688 383.660156 L 644.089844 383.660156 L 644.089844 395.539062 L 534.179688 395.539062 Z M 534.179688 383.660156 " fill-opacity="1" fill-rule="nonzero"/><path fill="#3374b9" d="M 666.773438 350.070312 L 759.734375 350.070312 L 759.734375 361.945312 L 666.773438 361.945312 Z M 666.773438 350.070312 " fill-opacity="1" fill-rule="nonzero"/><g clip-path="url(#065adb35f3)"><path fill="#3374b9" d="M 331.980469 694.101562 L 1143.136719 694.101562 L 1143.136719 705.976562 L 331.980469 705.976562 Z M 331.980469 694.101562 " fill-opacity="1" fill-rule="nonzero"/></g></svg>