<svg xmlns="http://www.w3.org/2000/svg" xmlns:xlink="http://www.w3.org/1999/xlink" width="1080" zoomAndPan="magnify" viewBox="0 0 810 809.999993" height="1080" preserveAspectRatio="xMidYMid meet" version="1.0"><defs><clipPath id="926642cc0b"><path d="M 319 267 L 548 267 L 548 408 L 319 408 Z M 319 267 " clip-rule="nonzero"/></clipPath><clipPath id="b0fa38395c"><path d="M 225.824219 325.84375 L 534.933594 228.753906 L 615.167969 484.199219 L 306.058594 581.289062 Z M 225.824219 325.84375 " clip-rule="nonzero"/></clipPath><clipPath id="76a8ec94c9"><path d="M 225.824219 325.84375 L 534.933594 228.753906 L 615.167969 484.199219 L 306.058594 581.289062 Z M 225.824219 325.84375 " clip-rule="nonzero"/></clipPath><clipPath id="aa8e10ebff"><path d="M 317.789062 296.957031 L 535.171875 228.675781 L 575.949219 358.488281 L 358.5625 426.769531 Z M 317.789062 296.957031 " clip-rule="nonzero"/></clipPath><clipPath id="f49fec424f"><path d="M 317.789062 296.957031 L 534.671875 228.835938 L 575.445312 358.648438 L 358.5625 426.769531 Z M 317.789062 296.957031 " clip-rule="nonzero"/></clipPath><clipPath id="0bc0efd088"><path d="M 295 527 L 301 527 L 301 546 L 295 546 Z M 295 527 " clip-rule="nonzero"/></clipPath><clipPath id="1446c37640"><path d="M 225.824219 325.84375 L 534.933594 228.753906 L 615.167969 484.199219 L 306.058594 581.289062 Z M 225.824219 325.84375 " clip-rule="nonzero"/></clipPath><clipPath id="5784dd4e53"><path d="M 225.824219 325.84375 L 534.933594 228.753906 L 615.167969 484.199219 L 306.058594 581.289062 Z M 225.824219 325.84375 " clip-rule="nonzero"/></clipPath><clipPath id="17c359b053"><path d="M 302 563 L 308 563 L 308 581 L 302 581 Z M 302 563 " clip-rule="nonzero"/></clipPath><clipPath id="7ceebc0f03"><path d="M 225.824219 325.84375 L 534.933594 228.753906 L 615.167969 484.199219 L 306.058594 581.289062 Z M 225.824219 325.84375 " clip-rule="nonzero"/></clipPath><clipPath id="bd48b734b2"><path d="M 225.824219 325.84375 L 534.933594 228.753906 L 615.167969 484.199219 L 306.058594 581.289062 Z M 225.824219 325.84375 " clip-rule="nonzero"/></clipPath><clipPath id="3e015827a2"><path d="M 300.851562 563.75 L 304.972656 562.453125 L 310.472656 579.96875 L 306.351562 581.261719 Z M 300.851562 563.75 " clip-rule="nonzero"/></clipPath><clipPath id="dce62512b7"><path d="M 300.851562 563.75 L 304.972656 562.453125 L 310.4375 579.855469 L 306.316406 581.148438 Z M 300.851562 563.75 " clip-rule="nonzero"/></clipPath><clipPath id="35d143da2f"><path d="M 319 428 L 330 428 L 330 442 L 319 442 Z M 319 428 " clip-rule="nonzero"/></clipPath><clipPath id="c7de88073e"><path d="M 225.824219 325.84375 L 534.933594 228.753906 L 615.167969 484.199219 L 306.058594 581.289062 Z M 225.824219 325.84375 " clip-rule="nonzero"/></clipPath><clipPath id="fac9f7d71e"><path d="M 225.824219 325.84375 L 534.933594 228.753906 L 615.167969 484.199219 L 306.058594 581.289062 Z M 225.824219 325.84375 " clip-rule="nonzero"/></clipPath><clipPath id="1d5e72dc96"><path d="M 337 398 L 348 398 L 348 412 L 337 412 Z M 337 398 " clip-rule="nonzero"/></clipPath><clipPath id="25f8579800"><path d="M 225.824219 325.84375 L 534.933594 228.753906 L 615.167969 484.199219 L 306.058594 581.289062 Z M 225.824219 325.84375 " clip-rule="nonzero"/></clipPath><clipPath id="d6d2c047ce"><path d="M 225.824219 325.84375 L 534.933594 228.753906 L 615.167969 484.199219 L 306.058594 581.289062 Z M 225.824219 325.84375 " clip-rule="nonzero"/></clipPath><clipPath id="be3b56c884"><path d="M 298 492 L 304 492 L 304 510 L 298 510 Z M 298 492 " clip-rule="nonzero"/></clipPath><clipPath id="8e1746fb45"><path d="M 225.824219 325.84375 L 534.933594 228.753906 L 615.167969 484.199219 L 306.058594 581.289062 Z M 225.824219 325.84375 " clip-rule="nonzero"/></clipPath><clipPath id="8efacc06f6"><path d="M 225.824219 325.84375 L 534.933594 228.753906 L 615.167969 484.199219 L 306.058594 581.289062 Z M 225.824219 325.84375 " clip-rule="nonzero"/></clipPath><clipPath id="2890761261"><path d="M 304 461 L 312 461 L 312 479 L 304 479 Z M 304 461 " clip-rule="nonzero"/></clipPath><clipPath id="b80327e0c2"><path d="M 225.824219 325.84375 L 534.933594 228.753906 L 615.167969 484.199219 L 306.058594 581.289062 Z M 225.824219 325.84375 " clip-rule="nonzero"/></clipPath><clipPath id="52b54c4a47"><path d="M 225.824219 325.84375 L 534.933594 228.753906 L 615.167969 484.199219 L 306.058594 581.289062 Z M 225.824219 325.84375 " clip-rule="nonzero"/></clipPath></defs><g clip-path="url(#926642cc0b)"><g clip-path="url(#b0fa38395c)"><g clip-path="url(#76a8ec94c9)"><g clip-path="url(#aa8e10ebff)"><g clip-path="url(#f49fec424f)"><path fill="#1e90ff" d="M 372.664062 377.371094 C 378.125 376.953125 385.5 374.582031 389.238281 371.96875 C 388.285156 369.101562 386.71875 366.769531 383.878906 365.507812 C 377.78125 370.070312 374.714844 373.320312 372.664062 377.371094 Z M 360.851562 328.40625 C 362.203125 328.203125 363.296875 328.175781 364.304688 327.863281 C 372.105469 325.457031 379.910156 323.054688 387.667969 320.53125 C 399.324219 316.746094 410.945312 312.847656 422.585938 309.03125 C 426.464844 307.753906 430.453125 306.761719 434.265625 305.316406 C 452.554688 298.390625 471.0625 292.117188 489.785156 286.46875 C 498.605469 283.808594 507.445312 281.21875 516.277344 278.59375 C 513.859375 278.277344 511.5625 278.480469 509.335938 278.988281 C 500.507812 280.980469 491.597656 282.585938 482.558594 282.464844 C 473.46875 282.34375 464.582031 284.023438 455.589844 284.667969 C 444.019531 285.5 432.492188 286.9375 420.953125 288.195312 C 414.332031 288.917969 407.652344 289.433594 401.125 290.691406 C 391.191406 292.613281 381.128906 293.503906 371.144531 294.976562 C 364.34375 295.976562 357.472656 296.539062 350.707031 297.75 C 344.769531 298.816406 338.855469 299.832031 332.816406 300.039062 C 331.757812 300.078125 330.636719 300.125 330.238281 301.398438 C 330.351562 301.835938 330.328125 302.390625 330.585938 302.609375 C 340.695312 311.253906 350.828125 319.875 360.851562 328.40625 Z M 361.074219 379.820312 C 367.980469 375.160156 377.457031 367.316406 380.527344 362.613281 C 382.214844 360.023438 384.3125 358.699219 386.859375 357.574219 C 387.648438 357.230469 388.445312 356.894531 389.191406 356.472656 C 400.804688 349.921875 412.457031 343.441406 424.007812 336.773438 C 432.941406 331.613281 441.765625 326.253906 450.964844 321.558594 C 452.6875 320.683594 454.300781 319.605469 455.980469 318.644531 C 472.414062 309.25 488.851562 299.847656 505.300781 290.480469 C 508.105469 288.882812 511.027344 287.5 513.828125 285.902344 C 514.636719 285.433594 515.207031 284.539062 516.679688 283.039062 C 509.742188 284.816406 503.917969 286.210938 498.152344 287.808594 C 491.105469 289.761719 484.0625 291.746094 477.097656 293.976562 C 469.316406 296.46875 461.609375 299.207031 453.902344 301.929688 C 446.800781 304.4375 439.789062 307.203125 432.664062 309.613281 C 422.070312 313.199219 411.414062 316.609375 400.761719 320.027344 C 389.496094 323.648438 378.203125 327.175781 366.933594 330.785156 C 365.542969 331.230469 364.230469 331.921875 362.804688 332.535156 C 362.511719 334.664062 362.054688 336.5625 362.007812 338.464844 C 361.65625 351.972656 361.386719 365.484375 361.074219 379.820312 Z M 419.085938 400.765625 C 421.453125 398.59375 423.1875 396.652344 425.246094 395.167969 C 432.324219 390.078125 437.84375 383.488281 443.347656 376.851562 C 446.917969 372.550781 450.636719 368.363281 454.34375 364.175781 C 460.195312 357.566406 466.164062 351.058594 471.960938 344.398438 C 480.296875 334.824219 488.488281 325.125 496.808594 315.535156 C 499.34375 312.609375 502.058594 309.832031 504.746094 307.042969 C 510.417969 301.148438 516.136719 295.296875 521.820312 289.410156 C 522.570312 288.636719 523.402344 287.859375 523.863281 286.921875 C 524.359375 285.914062 526.03125 285.539062 525.488281 283.695312 C 521.640625 285.847656 517.925781 287.957031 514.183594 290.007812 C 501.738281 296.820312 489.046875 303.226562 476.898438 310.527344 C 463.804688 318.394531 450.554688 325.960938 437.246094 333.429688 C 422.613281 341.644531 408.039062 349.964844 393.460938 358.273438 C 391.808594 359.210938 390.261719 360.351562 388.507812 361.503906 C 390.121094 366.128906 392.96875 369.632812 395.773438 373.101562 C 401.863281 380.628906 408.082031 388.046875 414.285156 395.480469 C 415.648438 397.121094 417.148438 398.644531 419.085938 400.765625 Z M 547.390625 269.351562 C 539.785156 277.117188 532.464844 284.660156 525.066406 292.125 C 518.863281 298.386719 512.375 304.367188 506.355469 310.792969 C 495.046875 322.867188 483.449219 334.699219 474.132812 348.496094 C 472.109375 351.496094 469.367188 354.011719 466.949219 356.746094 C 463.402344 360.765625 459.882812 364.820312 456.292969 368.804688 C 447.515625 378.554688 438.773438 388.339844 429.855469 397.949219 C 426.945312 401.078125 423.558594 403.761719 420.308594 406.5625 C 419.375 407.363281 418.136719 407.085938 417.417969 406.179688 C 411.699219 398.929688 406.070312 391.609375 400.347656 384.363281 C 398.097656 381.519531 395.679688 378.8125 393.300781 375.996094 C 389.023438 377.21875 385.113281 378.292969 381.234375 379.457031 C 377.109375 380.699219 373.058594 382.207031 368.890625 383.265625 C 365.011719 384.25 361.699219 387.300781 356.863281 386.484375 C 356.617188 385.113281 356.09375 383.707031 356.160156 382.324219 C 356.460938 375.878906 357 369.445312 357.320312 363 C 357.777344 353.757812 358.1875 344.515625 358.441406 335.269531 C 358.476562 333.902344 357.839844 332.304688 357.011719 331.179688 C 355.75 329.464844 354.140625 327.964844 352.515625 326.5625 C 345.011719 320.109375 337.46875 313.703125 329.898438 307.324219 C 328.25 305.941406 326.425781 304.785156 324.710938 303.492188 C 322.679688 301.949219 320.5625 300.496094 319.082031 298.3125 C 319.765625 296.128906 321.394531 295.609375 323.125 295.550781 C 341.21875 294.917969 359.097656 292.273438 377 289.878906 C 379.5625 289.539062 382.15625 289.457031 384.707031 289.058594 C 390.652344 288.125 396.550781 286.832031 402.523438 286.125 C 413.628906 284.824219 424.773438 283.828125 435.898438 282.710938 C 444.894531 281.800781 453.886719 280.898438 462.878906 280.007812 C 471.859375 279.117188 480.867188 278.449219 489.816406 277.296875 C 499.199219 276.085938 508.550781 274.519531 517.878906 272.914062 C 526.566406 271.417969 535.210938 269.65625 543.878906 268.039062 C 545.121094 267.808594 546.472656 267.449219 547.390625 269.351562 " fill-opacity="1" fill-rule="evenodd"/></g></g></g></g></g><g clip-path="url(#0bc0efd088)"><g clip-path="url(#1446c37640)"><g clip-path="url(#5784dd4e53)"><path fill="#1e90ff" d="M 300.101562 535.257812 C 300.390625 537.996094 300.777344 540.730469 300.898438 543.476562 C 300.925781 544.011719 300.003906 544.753906 299.359375 545.066406 C 299.082031 545.203125 298.066406 544.566406 297.945312 544.121094 C 296.550781 539.214844 295.570312 534.226562 295.84375 529.082031 C 295.867188 528.601562 296.710938 527.707031 296.953125 527.773438 C 297.632812 527.972656 298.609375 528.472656 298.742188 529.027344 C 299.246094 531.078125 299.453125 533.203125 299.765625 535.300781 C 299.882812 535.285156 299.992188 535.273438 300.101562 535.257812 " fill-opacity="1" fill-rule="evenodd"/></g></g></g><g clip-path="url(#17c359b053)"><g clip-path="url(#7ceebc0f03)"><g clip-path="url(#bd48b734b2)"><g clip-path="url(#3e015827a2)"><g clip-path="url(#dce62512b7)"><path fill="#1e90ff" d="M 306.859375 580.949219 C 306.246094 579.695312 305.425781 578.492188 305.074219 577.171875 C 304.027344 573.273438 303.117188 569.335938 302.308594 565.386719 C 302.195312 564.808594 302.84375 563.59375 303.316406 563.496094 C 303.925781 563.367188 305.117188 563.890625 305.339844 564.433594 C 305.984375 565.976562 306.445312 567.652344 306.660156 569.3125 C 307.152344 573.082031 307.453125 576.882812 307.832031 580.671875 C 307.511719 580.765625 307.1875 580.855469 306.859375 580.949219 " fill-opacity="1" fill-rule="evenodd"/></g></g></g></g></g><g clip-path="url(#35d143da2f)"><g clip-path="url(#c7de88073e)"><g clip-path="url(#fac9f7d71e)"><path fill="#1e90ff" d="M 329.332031 428.792969 C 329.226562 429.511719 329.324219 430.234375 329.019531 430.679688 C 326.621094 434.167969 324.191406 437.640625 321.640625 441.011719 C 321.316406 441.445312 320.195312 441.390625 319.472656 441.316406 C 319.3125 441.300781 318.972656 440.089844 319.191406 439.710938 C 321.222656 436.242188 323.316406 432.8125 325.507812 429.445312 C 325.917969 428.820312 326.816406 428.371094 327.578125 428.160156 C 328.027344 428.03125 328.65625 428.527344 329.332031 428.792969 " fill-opacity="1" fill-rule="evenodd"/></g></g></g><g clip-path="url(#1d5e72dc96)"><g clip-path="url(#25f8579800)"><g clip-path="url(#d6d2c047ce)"><path fill="#1e90ff" d="M 338.671875 411.347656 C 338.34375 410.984375 337.851562 410.597656 337.585938 410.089844 C 337.421875 409.773438 337.445312 409.171875 337.648438 408.871094 C 340.023438 405.304688 342.335938 401.664062 345.734375 398.945312 C 346.089844 398.65625 347.085938 398.734375 347.46875 399.039062 C 347.820312 399.320312 348.042969 400.355469 347.804688 400.679688 C 345.292969 404.152344 342.691406 407.558594 340.0625 410.941406 C 339.859375 411.210938 339.28125 411.183594 338.671875 411.347656 " fill-opacity="1" fill-rule="evenodd"/></g></g></g><g clip-path="url(#be3b56c884)"><g clip-path="url(#8e1746fb45)"><g clip-path="url(#8efacc06f6)"><path fill="#1e90ff" d="M 302.027344 492.976562 C 302.535156 494.214844 303.132812 494.953125 303.066406 495.625 C 302.65625 499.664062 302.121094 503.703125 301.550781 507.738281 C 301.46875 508.324219 301.078125 508.929688 300.679688 509.402344 C 300.460938 509.667969 299.917969 509.8125 299.5625 509.753906 C 299.195312 509.691406 298.859375 509.347656 298.558594 509.074219 C 298.417969 508.945312 298.324219 508.679688 298.332031 508.484375 C 298.546875 503.578125 298.460938 498.621094 300.765625 494.070312 C 300.855469 493.890625 301.082031 493.785156 302.027344 492.976562 " fill-opacity="1" fill-rule="evenodd"/></g></g></g><g clip-path="url(#2890761261)"><g clip-path="url(#b80327e0c2)"><g clip-path="url(#52b54c4a47)"><path fill="#1e90ff" d="M 305.359375 478.152344 C 304.726562 477.324219 304.476562 477.152344 304.492188 477 C 305 471.65625 307.003906 466.796875 309.460938 462.113281 C 309.667969 461.726562 310.625 461.429688 311.085938 461.570312 C 311.484375 461.699219 312.007812 462.628906 311.882812 463 C 310.378906 467.398438 308.804688 471.777344 307.144531 476.113281 C 306.878906 476.820312 306.101562 477.332031 305.359375 478.152344 " fill-opacity="1" fill-rule="evenodd"/></g></g></g></svg>